<svg xmlns="http://www.w3.org/2000/svg" class="bi" fill="#000" width="16" height="16" viewBox="0 0 1031.73 1205.57">
  <path d="m 107.88405,1092.5483 c -8.539414,0 -17.053003,0.1054 -25.591783,0.1744 -42.20875,0.195 -84.408184,0.4506 -126.612007,0.6974 -7.874264,0.034 -15.697121,0.5575 -23.571384,0.5232 -9.372536,-0.034 -14.624478,5.1049 -17.005069,13.7759 -0.932259,3.4005 -1.58378,6.9263 -1.683669,10.4627 -0.04994,1.7269 -0.01827,3.5002 0,5.2313 0.0031,0.2886 -0.0042,0.5834 0,0.8719 -0.379279,5.2271 -0.28085,10.4625 0,15.6941 -0.04686,0.8023 -0.0934,1.6416 -0.168369,2.4413 -1.598158,17.3252 8.065384,25.9013 24.41322,25.4592 16.198007,-0.4334 32.339366,-0.5294 48.658068,-0.5231 0.88632,0.025 1.79476,-0.02 2.693872,0 4.442207,0.1 8.553799,0.3487 13.300994,0.3487 52.652094,-0.018 105.279057,0.012 157.928277,0 233.32918,-0.046 466.57313,-0.012 699.9017,0 56.01682,0 112.01026,0 168.0303,0 3.6919,0 7.411,0 11.1122,0 19.4233,0 38.8303,0 58.255,0 1.7479,0 3.6566,0.046 5.3878,-0.1743 7.9241,-1.0372 14.9366,-8.0858 15.1531,-16.0428 0.146,-5.3613 0.4272,-10.6658 0.5051,-16.0429 0.1661,-2.6593 -0.063,-5.3654 -0.1685,-8.0213 -0.045,-4.8148 -0.1114,-9.6921 -0.505,-14.4735 -0.9656,-11.7995 -6.6027,-19.4705 -18.6887,-19.1815 -3.7791,0.1019 -7.6534,-0.4888 -11.449,-0.5232 -21.9081,-0.1531 -43.7646,-0.072 -66.505,-0.1744 -46.11364,-0.204 -91.44954,-0.5231 -136.71407,-0.5231 -5.31609,0 -10.51326,0.3274 -15.82652,0.6975 -56.4372,-0.062 -112.17464,-0.1137 -170.38742,-0.1744 h -0.16837 c -188.32872,-0.1929 -373.25619,-0.4945 -558.13668,-0.5231 -2.34236,-4e-4 -4.7291,3e-4 -7.07141,0 -8.30959,-10e-4 -16.77761,0 -25.08668,0 z" />
  <path d="m 540.37115,44.264871 c 46.28688,26.832126 92.06447,53.405974 137.87116,79.908079 126.43404,73.16418 252.88263,146.27096 379.30209,219.46383 10.1276,5.86863 20.1823,11.8951 29.9024,18.38072 5.2384,3.50109 10.1712,7.71962 14.4201,12.33991 7.6684,8.33661 13.0232,18.00766 14.3037,29.50099 0.6693,5.95472 1.3969,11.8951 2.139,18.19419 -1.7461,0.28697 -2.9539,0.64569 -4.1616,0.64569 -154.83768,0.30132 -309.67536,0.54525 -464.49849,0.87527 -235.82881,0.50221 -471.67216,1.07616 -707.500962,1.50662 -9.32722,0.0144 -18.654441,-1.27704 -28.09807,-1.96578 -1.149532,-25.79901 7.770259,-46.10247 29.014786,-60.37945 9.487282,-6.37084 19.33834,-12.26817 29.233052,-18.00766 C 102.89395,269.10947 233.51869,193.54906 364.12888,117.9743 405.97769,93.753641 447.8265,69.547334 489.63165,45.254934 506.2053,35.612587 522.88079,35.038638 540.37115,44.27922 Z" />
  <path d="m 1063.554,501.028 c -370.99346,0 -741.21572,-0.043 -1111.437985,0.18653 -13.707086,0 -22.81604,-5.56731 -29.727787,-16.25711 -7.391932,-11.42159 -10.578611,-23.87629 -8.847036,-38.31111 2.531882,-0.11479 5.209274,-0.34437 7.872116,-0.34437 158.155319,-0.35872 316.310642,-0.90397 474.465952,-0.97571 220.50656,-0.11479 440.99856,0.10044 661.50514,0.22958 18.3925,0 36.785,0.44481 55.1775,0.70309 1.7607,0.0287 3.5068,0.24392 5.7622,0.41611 1.7462,18.55291 -3.4777,34.43695 -16.821,47.4369 -4.8746,4.74943 -10.8987,7.21741 -18.0142,6.95913 -6.3733,-0.22958 -12.7758,-0.043 -19.9203,-0.043 z" />
  <path d="m 212.20141,833.08099 c -0.0146,64.08963 -0.0582,127.54308 0.0436,190.98431 0,2.4471 0.90217,5.0652 2.15356,7.3045 3.57956,6.4114 7.62475,12.6392 11.37892,18.9896 6.38791,10.7916 -0.29102,20.2375 -14.39099,20.2495 -66.68744,0.049 -133.389436,-0.11 -200.07688,0.1836 -11.21885651,0.049 -16.7919071,-5.6038 -17.3302958,-12.0029 -0.2182657,-2.6062 0.8730627,-5.5061 2.211759,-7.9409 3.6523125,-6.6193 7.9594221,-12.9941 11.5680815,-19.6259 1.4260025,-2.6182 2.4154733,-5.6773 2.4300243,-8.528 0.218266,-132.70642 0.27647,-265.4006 0.436532,-398.10701 0.01455,-16.1264 0.55294,-32.25283 0.829409,-48.37922 0.04365,-2.129 0,-4.2702 0,-6.76625 -8.8761376,-3.59725 -11.02969246,-9.94747 -9.8801598,-17.70479 0.5965929,-4.04996 0.5238376,-8.16108 0.8876138,-12.23552 0.5529397,-6.17894 4.2489054,-10.131 11.393469,-11.1955 5.747663,-0.85648 11.669939,-1.23578 17.519459,-1.23578 49.822782,0.0122 99.660118,0.1713 149.482898,0.28142 6.63527,0.0121 13.29965,-0.25695 19.92038,0.0489 14.78386,0.6852 19.35289,4.69845 19.92038,17.20314 0.20372,4.50269 0,9.02983 -0.16006,13.53249 -0.20371,5.34692 -4.30711,8.47922 -9.38542,11.12209 0.34922,87.7164 0.713,175.43284 1.06222,263.79773 z m -91.56973,114.2063 v -95.46148 c 0,-92.23132 0,-184.47489 -0.0145,-276.70619 0,-2.55724 0,-5.21234 -0.74211,-7.65944 -1.13498,-3.73186 -4.9037,-5.86081 -9.05075,-5.76295 -4.1616,0.0979 -7.62474,2.43486 -8.65787,6.17893 -0.50929,1.85981 -0.58204,3.82973 -0.61114,5.76294 -0.0728,4.73515 0,9.45806 0,14.19321 v 425.06209 c 0,2.5815 -0.0873,5.1756 0.30557,7.7203 0.69845,4.4296 4.37986,7.2068 9.0944,7.2556 4.67089,0.049 8.58512,-2.7772 9.42908,-7.0597 0.36378,-1.8966 0.23282,-3.8545 0.23282,-5.7875 v -67.72357 z" />
  <path d="m 1020.8321,617.5646 c 0.2183,131.78875 0.5384,262.92901 0.4075,394.0573 0,10.6569 1.3823,20.3472 8.3377,29.3529 2.4882,3.2176 4.0598,6.9372 6.3443,10.2777 5.5148,8.0875 -1.5133,19.6014 -13.969,19.54 -67.67695,-0.3425 -135.36841,-0.3669 -203.05988,0 -11.71359,0.062 -19.09097,-11.4279 -13.9108,-19.173 4.51083,-6.7297 8.55602,-13.6791 12.49935,-20.6658 1.25139,-2.2268 2.0808,-4.8576 2.0808,-7.3044 0.26192,-138.01677 0.42198,-276.0334 0.59659,-414.05002 0.0145,-13.10422 0,-26.2207 0,-40.3038 -0.6839,-0.46492 -2.852,-1.39482 -4.08884,-2.87535 -2.00804,-2.3859 -4.64178,-5.07772 -4.8164,-7.74506 -0.45108,-6.8152 -0.0436,-13.72824 0.71301,-20.54343 0.58204,-5.20008 4.67088,-8.62605 10.68046,-9.715 4.69999,-0.84425 9.61824,-1.24804 14.43464,-1.24804 54.40636,-0.12234 108.79817,-0.14681 163.20457,-0.11011 5.5876,0 11.2479,0.34259 16.7628,1.1012 7.6684,1.06449 11.6845,4.86974 12.2519,11.33008 0.5239,5.99543 0.6257,12.02752 0.7567,18.03516 0.131,5.64059 -4.0888,8.98087 -9.2254,11.64822 v 48.37921 z m -90.68208,85.81993 c 0,-42.78762 0.0145,-85.5752 -0.0291,-128.35056 0,-2.55723 -0.0145,-5.21235 -0.78576,-7.64721 -1.16408,-3.71959 -4.97646,-5.83635 -9.10895,-5.68953 -4.1616,0.1346 -7.59565,2.48382 -8.57057,6.26459 -0.53839,2.08005 -0.59659,4.27022 -0.59659,6.39918 -0.0145,146.85067 0,293.68909 0.0146,440.5398 0,1.9331 -0.0291,3.8911 0.30557,5.7875 0.78576,4.3925 4.48172,7.17 9.19626,7.17 4.65634,0 8.57057,-2.8386 9.32722,-7.1455 0.40743,-2.3249 0.23282,-4.7232 0.23282,-7.0845 V 703.38453 Z" />
  <path d="m 616.01368,617.5663 c 0.2183,131.78875 0.5384,262.92902 0.4075,394.0571 0,10.6573 1.3823,20.3475 8.3377,29.353 2.4882,3.2177 4.0598,6.9375 6.3443,10.2777 5.5148,8.0878 -1.5133,19.6015 -13.969,19.5403 -67.67695,-0.3427 -135.36841,-0.3671 -203.05988,0 -11.71359,0.061 -19.09097,-11.4281 -13.9108,-19.1731 4.51083,-6.7297 8.55602,-13.6792 12.49935,-20.6658 1.25139,-2.2267 2.0808,-4.8577 2.0808,-7.3045 0.26192,-138.01676 0.42198,-276.03338 0.59659,-414.05 0.0145,-13.10425 0,-26.22073 0,-40.30379 -0.6839,-0.46498 -2.852,-1.39486 -4.08884,-2.87536 -2.00804,-2.38591 -4.64178,-5.07774 -4.8164,-7.7451 -0.45108,-6.81517 -0.0436,-13.72825 0.71301,-20.54341 0.58204,-5.20011 4.67088,-8.62604 10.68046,-9.71501 4.69999,-0.84425 9.61824,-1.24802 14.43464,-1.24802 54.40636,-0.12235 108.79817,-0.14681 163.20457,-0.11013 5.5876,0 11.2479,0.3426 16.7628,1.1012 7.6684,1.06451 11.6845,4.86976 12.2519,11.33009 0.5239,5.99541 0.6257,12.02751 0.7567,18.03515 0.131,5.64057 -4.0888,8.98087 -9.2254,11.64821 v 48.37925 z m -90.68208,85.81991 c 0,-42.7876 0.0145,-85.57518 -0.0291,-128.35056 0,-2.55722 -0.0145,-5.21234 -0.78576,-7.6472 -1.16408,-3.7196 -4.97646,-5.83633 -9.10895,-5.6895 -4.1616,0.1346 -7.59565,2.4838 -8.57057,6.26456 -0.53839,2.08006 -0.59659,4.27021 -0.59659,6.3992 -0.0145,146.85066 0,293.68909 0.0146,440.53989 0,1.9329 -0.0291,3.8909 0.30557,5.7871 0.78576,4.3927 4.48172,7.1701 9.19626,7.1701 4.65634,0 8.57057,-2.8384 9.32722,-7.1455 0.40743,-2.3248 0.23282,-4.7229 0.23282,-7.0843 V 703.38621 Z" />
</svg>